<svg width="548" height="548" viewBox="0 0 548 548" fill="none" xmlns="http://www.w3.org/2000/svg">
<rect width="548" height="548" rx="274" fill="white"/>
<path fill-rule="evenodd" clip-rule="evenodd" d="M124 424L393.058 199.952C396.354 197.079 399.023 193.559 400.903 189.611C402.782 185.662 403.83 181.37 403.982 177.001C404.133 172.631 403.386 168.276 401.785 164.207C400.184 160.138 397.764 156.442 394.676 153.346C391.58 150.252 387.88 147.826 383.807 146.222C379.734 144.617 375.375 143.868 370.999 144.019C366.624 144.171 362.327 145.221 358.374 147.104C354.422 148.987 350.899 151.663 348.025 154.965L124 424ZM253.795 185.358L140.507 270.317L225.473 157.039C227.211 154.723 229.426 152.807 231.968 151.42C234.51 150.034 237.321 149.209 240.209 149.002C243.097 148.795 245.996 149.21 248.71 150.22C251.424 151.229 253.889 152.81 255.939 154.854C257.993 156.902 259.583 159.368 260.6 162.084C261.617 164.8 262.038 167.703 261.835 170.596C261.631 173.489 260.809 176.305 259.421 178.852C258.034 181.399 256.115 183.618 253.795 185.358ZM390.957 322.534L277.67 407.492L362.635 294.214C364.373 291.898 366.588 289.982 369.13 288.596C371.672 287.209 374.482 286.384 377.37 286.177C380.259 285.97 383.157 286.385 385.871 287.395C388.585 288.405 391.051 289.985 393.102 292.03C395.156 294.077 396.745 296.543 397.762 299.259C398.779 301.975 399.2 304.878 398.997 307.771C398.794 310.664 397.97 313.48 396.583 316.027C395.196 318.574 393.277 320.793 390.957 322.534Z" fill="black"/>
</svg>
